# xmcd
#
# Track frame offsets:
#	150
#	13480
#	26733
#	39965
#	52125
#	64709
#	79766
#	91091
#	105772
#	119282
#	131759
#	146022
#	159822
#	175010
#
# Disc length: 2544 seconds
#
# Revision: 1
# Processed by: cddbd v1.5.2PL0 Copyright (c) Steve Scherf et al.
# Submitted via: audiograbber 1.83.01
#
DISCID=ae09ee0e
DTITLE=Mario K - Dafür schlägt mein Herz
DYEAR=2014
DGENRE=Schlager
TTITLE0=Der Himmel über Tirol
TTITLE1=In München wohnt mei Spatzerl
TTITLE2=Da wo die Sonne scheint
TTITLE3=A Dirndl aus den Bergen
TTITLE4=Weine nicht muss ich auch gehen
TTITLE5=Herrgott schick a Engerl
TTITLE6=Auf geht's Boarisch bis gor isch
TTITLE7=Flieg mit mir hinauf zum Mond
TTITLE8=Dafür schlägt mein Herz
TTITLE9=Du bist für mi die erste Wahl
TTITLE10=Madl du i könnt di mögn
TTITLE11=Sierra Madre
TTITLE12=I möcht gern wissen wer du bist
TTITLE13=Heimat ist mein schönstes Wort
EXTD=
EXTT0=
EXTT1=
EXTT2=
EXTT3=
EXTT4=
EXTT5=
EXTT6=
EXTT7=
EXTT8=
EXTT9=
EXTT10=
EXTT11=
EXTT12=
EXTT13=
PLAYORDER=
